<svg width="101" height="90" viewBox="0 0 101 90" fill="none" xmlns="http://www.w3.org/2000/svg">
<path d="M99.0384 11.7348L39.6636 20.5534C39.495 20.5785 39.3701 20.7233 39.3701 20.8938V88.3693C39.3701 88.5828 39.5625 88.7448 39.7729 88.7083L99.1477 78.4199C99.3126 78.3913 99.433 78.2482 99.433 78.0809V12.0751C99.433 11.8649 99.2463 11.7039 99.0384 11.7348Z" fill="#2200B8" stroke="#FCF7EE" stroke-width="2.06424"/>
<path d="M97.0187 11.4312L61.5868 1.04604C61.5434 1.03329 61.4978 1.02926 61.4528 1.03418L1.03214 7.62939V74.9024C1.03214 75.0488 1.12476 75.1791 1.26301 75.2273L38.487 88.1929C38.7106 88.2708 38.9442 88.1048 38.9442 87.868V19.7698L96.967 12.1025C97.3357 12.0537 97.3756 11.5358 97.0187 11.4312Z" fill="#2200B8"/>
<path d="M1.03213 7.62939L61.4528 1.03418C61.4978 1.02926 61.5434 1.03329 61.5869 1.04604L97.0187 11.4312C97.3756 11.5358 97.3357 12.0537 96.967 12.1025L38.9442 19.7698M1.03213 7.62939L38.9442 19.7698M1.03213 7.62939V74.9024C1.03213 75.0488 1.12477 75.1791 1.26301 75.2273L38.487 88.1929C38.7106 88.2708 38.9442 88.1048 38.9442 87.868V19.7698" stroke="#FCF7EE" stroke-width="2.06424"/>
</svg>
