<svg width="100" height="92" viewBox="0 0 100 92" fill="none" xmlns="http://www.w3.org/2000/svg">
<path d="M98.0254 16.8205L25.5393 22.3229C25.3447 22.3376 25.1943 22.4999 25.1943 22.695V89.7369C25.1943 89.9575 25.3847 90.1299 25.6042 90.1083L98.0903 82.9632C98.2813 82.9444 98.4269 82.7837 98.4269 82.5918V17.1927C98.4269 16.9754 98.242 16.8041 98.0254 16.8205Z" fill="#FF0090" stroke="#FCF7EE" stroke-width="2.23948"/>
<path d="M98.0338 15.9743L71.3859 1.16672C71.3237 1.13214 71.2528 1.11608 71.1818 1.12042L1.12012 5.40611V67.9516C1.12012 68.0568 1.16454 68.1571 1.24243 68.2279L24.9434 89.753C25.1833 89.9708 25.5676 89.8006 25.5676 89.4767V22.2023L97.8809 16.6727C98.25 16.6445 98.3573 16.1541 98.0338 15.9743Z" fill="#FF0090"/>
<path d="M1.12012 5.40611L71.1818 1.12042C71.2528 1.11608 71.3237 1.13214 71.3859 1.16672L98.0338 15.9743C98.3573 16.1541 98.25 16.6445 97.8809 16.6727L25.5676 22.2023M1.12012 5.40611L25.5676 22.2023M1.12012 5.40611V67.9516C1.12012 68.0568 1.16453 68.1571 1.24243 68.2279L24.9434 89.753C25.1833 89.9708 25.5676 89.8006 25.5676 89.4767V22.2023" stroke="#FCF7EE" stroke-width="2.23948"/>
</svg>
