<svg width="48" height="44" viewBox="0 0 48 44" fill="none" xmlns="http://www.w3.org/2000/svg">
<path d="M46.6253 8.39228L12.4974 10.9829C12.4058 10.9898 12.335 11.0662 12.335 11.1581V42.7227C12.335 42.8266 12.4246 42.9078 12.5279 42.8976L46.6558 39.5336C46.7457 39.5247 46.8143 39.4491 46.8143 39.3587V8.56751C46.8143 8.46521 46.7273 8.38454 46.6253 8.39228Z" fill="#FF0090" stroke="#FCF7EE" stroke-width="2"/>
<path d="M46.6291 7.99382L34.0828 1.02212C34.0535 1.00584 34.0202 0.99828 33.9867 1.00033L1.00029 3.01811V32.4657C1.00029 32.5153 1.0212 32.5625 1.05788 32.5958L12.2168 42.7303C12.3297 42.8328 12.5107 42.7527 12.5107 42.6002V10.9261L46.5572 8.32265C46.731 8.30936 46.7815 8.07847 46.6291 7.99382Z" fill="#FF0090"/>
<path d="M1.00029 3.01811L33.9867 1.00033C34.0202 0.99828 34.0535 1.00584 34.0828 1.02212L46.6291 7.99382C46.7815 8.07847 46.731 8.30936 46.5572 8.32265L12.5107 10.9261M1.00029 3.01811L12.5107 10.9261M1.00029 3.01811V32.4657C1.00029 32.5153 1.0212 32.5625 1.05788 32.5958L12.2168 42.7303C12.3297 42.8328 12.5107 42.7527 12.5107 42.6002V10.9261" stroke="#FCF7EE" stroke-width="2"/>
</svg>
