<svg width="48" height="45" viewBox="0 0 48 45" fill="none" xmlns="http://www.w3.org/2000/svg">
<path d="M47.5193 6.13653L19.0237 10.3689C18.9427 10.3809 18.8828 10.4504 18.8828 10.5322V42.9157C18.8828 43.0181 18.9752 43.0958 19.0761 43.0784L47.5718 38.1406C47.6509 38.1269 47.7087 38.0582 47.7087 37.9779V6.29985C47.7087 6.199 47.6191 6.12171 47.5193 6.13653Z" fill="#2200B8" stroke="#FCF7EE" stroke-width="2"/>
<path d="M46.55 5.99085L29.5452 1.0067C29.5244 1.00059 29.5025 0.998651 29.4809 1.00101L0.483288 4.16624V36.4525C0.483288 36.5227 0.527744 36.5853 0.59409 36.6084L18.4589 42.831C18.5662 42.8684 18.6784 42.7887 18.6784 42.6751V9.99275L46.5252 6.31299C46.7021 6.28961 46.7213 6.04106 46.55 5.99085Z" fill="#2200B8"/>
<path d="M0.483287 4.16624L29.4809 1.00101C29.5025 0.998651 29.5244 1.00059 29.5452 1.0067L46.55 5.99085C46.7213 6.04106 46.7021 6.28961 46.5252 6.31299L18.6784 9.99275M0.483287 4.16624L18.6784 9.99275M0.483287 4.16624V36.4525C0.483287 36.5227 0.527745 36.5853 0.594091 36.6084L18.4589 42.831C18.5662 42.8684 18.6784 42.7887 18.6784 42.6751V9.99275" stroke="#FCF7EE" stroke-width="2"/>
</svg>
